<?xml version="1.0" standalone="no"?>
<!DOCTYPE svg PUBLIC "-//W3C//DTD SVG 20010904//EN"
 "http://www.w3.org/TR/2001/REC-SVG-20010904/DTD/svg10.dtd">
<svg version="1.0" xmlns="http://www.w3.org/2000/svg"
 width="512.000000pt" height="512.000000pt" viewBox="0 0 512.000000 512.000000"
 preserveAspectRatio="xMidYMid meet">
<metadata>
Created by potrace 1.14, written by Peter Selinger 2001-2017
</metadata>
<g transform="translate(0.000000,512.000000) scale(0.100000,-0.100000)"
fill="#000000" stroke="none">
<path d="M2575 4106 c-69 -22 -121 -54 -183 -111 -185 -171 -399 -633 -538
-1160 -20 -77 -41 -143 -47 -147 -6 -3 -31 -9 -56 -13 -238 -34 -502 -207
-664 -436 -175 -247 -252 -584 -178 -781 29 -74 97 -150 168 -184 45 -22 74
-29 143 -32 156 -8 268 41 414 179 l93 88 29 -67 c38 -91 111 -164 184 -186
167 -50 349 19 588 222 35 30 65 52 66 50 2 -1 15 -28 30 -58 45 -90 89 -135
169 -175 372 -182 829 113 964 624 34 125 38 322 9 416 -57 189 -176 301 -349
330 l-38 6 63 72 c151 170 245 302 326 457 99 189 172 444 172 599 0 100 -41
210 -97 263 -90 86 -264 75 -416 -26 -133 -89 -297 -303 -434 -571 -222 -435
-411 -1089 -430 -1495 l-6 -125 -85 -80 c-153 -145 -232 -194 -310 -195 -35 0
-49 6 -72 28 -38 38 -50 88 -50 207 l0 100 71 100 c263 374 532 847 647 1141
109 280 147 442 147 634 0 125 -2 139 -26 190 -60 127 -173 177 -304 136z m42
-303 c23 -34 22 -164 -2 -287 -21 -114 -84 -309 -142 -445 -84 -198 -345 -692
-358 -679 -6 6 71 365 120 563 107 433 238 783 315 849 39 32 45 32 67 -1z
m1012 -39 c11 -31 11 -57 2 -130 -21 -179 -99 -366 -275 -657 -113 -189 -325
-511 -331 -505 -6 6 80 340 134 518 67 224 140 419 215 575 123 254 211 323
255 199z m-1884 -1406 c-23 -102 -47 -300 -52 -433 l-6 -160 -64 -72 c-35 -39
-89 -88 -119 -109 -49 -34 -63 -38 -116 -39 -55 0 -62 3 -88 32 -52 58 -50
181 4 341 29 86 48 122 102 198 83 116 185 203 289 245 54 23 56 22 50 -3z
m1576 -32 c21 -14 46 -46 60 -73 20 -41 23 -62 23 -153 -1 -248 -108 -468
-256 -525 -85 -32 -165 3 -208 90 -21 43 -25 63 -24 145 2 174 49 325 135 437
75 96 193 131 270 79z"/>
</g>
</svg>
